<?xml version="1.0" standalone="no"?>
<!DOCTYPE svg PUBLIC "-//W3C//DTD SVG 20010904//EN"
 "http://www.w3.org/TR/2001/REC-SVG-20010904/DTD/svg10.dtd">
<svg version="1.0" xmlns="http://www.w3.org/2000/svg"
 width="187.000000pt" height="170.000000pt" viewBox="0 0 187.000000 170.000000"
 preserveAspectRatio="xMidYMid meet">

<g transform="translate(0.000000,170.000000) scale(0.100000,-0.100000)"
fill="#000000" stroke="none">
<path d="M180 1585 c0 -8 4 -15 9 -15 5 0 14 -12 20 -27 6 -16 20 -41 31 -58
11 -16 23 -37 27 -45 18 -35 77 -135 83 -140 4 -3 16 -25 29 -50 12 -25 31
-58 42 -75 10 -16 23 -39 29 -50 5 -11 16 -29 22 -40 16 -24 59 -94 74 -120 7
-11 24 -42 38 -70 15 -27 35 -63 46 -80 10 -16 30 -50 43 -75 l25 -45 351 -2
352 -3 -7 23 c-3 12 -11 28 -17 36 -13 15 -26 39 -58 101 -13 25 -36 64 -51
86 -15 23 -28 47 -28 53 0 8 -56 11 -184 11 -137 0 -185 3 -190 13 -3 6 -15
26 -25 42 -11 17 -30 50 -42 75 -13 25 -25 47 -29 50 -3 3 -22 33 -42 68 l-37
62 358 0 359 0 18 -27 c24 -36 37 -57 69 -118 27 -51 35 -65 72 -124 l22 -34
12 26 c7 15 16 27 21 27 4 0 8 4 8 9 0 5 21 45 46 88 26 43 55 93 65 112 l18
34 -37 71 c-20 39 -43 77 -49 84 -7 7 -13 17 -13 22 0 5 -14 29 -30 53 -17 25
-30 50 -30 56 0 8 -198 11 -710 11 -624 0 -710 -2 -710 -15z"/>
<path d="M322 656 c-12 -21 -22 -41 -22 -46 0 -4 -4 -10 -8 -12 -8 -3 -36 -49
-91 -149 l-30 -55 22 -45 c12 -24 25 -46 29 -49 4 -3 12 -17 18 -30 5 -14 19
-38 29 -55 11 -16 31 -50 44 -75 l25 -45 706 -3 c428 -1 706 2 706 7 0 11 -32
74 -42 81 -4 3 -12 17 -18 30 -5 14 -19 39 -30 55 -11 17 -25 39 -30 50 -6 11
-18 32 -26 48 l-15 27 -540 0 c-472 0 -539 2 -539 15 0 8 -4 15 -9 15 -5 0
-14 12 -20 28 -15 35 -42 86 -50 92 -3 3 -15 23 -26 45 -11 22 -23 42 -26 45
-3 3 -13 18 -21 34 l-15 28 -21 -36z"/>
</g>
</svg>
